<svg width="26" height="26" viewBox="0 0 26 26" fill="none" xmlns="http://www.w3.org/2000/svg">
<path d="M24.21 8.91428C24.21 8.37247 24.0282 7.85287 23.7048 7.46975C23.3814 7.08666 22.9427 6.87142 22.4853 6.87142H19.0361L16.4492 2.78571H9.55072L6.9638 6.87142H3.51457C3.05716 6.87142 2.61851 7.08666 2.29508 7.46975C1.97165 7.85287 1.78995 8.37247 1.78995 8.91428V21.1714C1.78995 21.7132 1.97165 22.2329 2.29508 22.6159C2.61851 22.999 3.05716 23.2143 3.51457 23.2143H22.4853C22.9427 23.2143 23.3814 22.999 23.7048 22.6159C24.0282 22.2329 24.21 21.7132 24.21 21.1714V8.91428Z" stroke="white" stroke-width="2" stroke-linecap="round" stroke-linejoin="round"/>
<path d="M13 17.9745C15.1429 17.9745 16.8801 16.2373 16.8801 14.0944C16.8801 11.9515 15.1429 10.2143 13 10.2143C10.857 10.2143 9.11987 11.9515 9.11987 14.0944C9.11987 16.2373 10.857 17.9745 13 17.9745Z" stroke="white" stroke-width="2" stroke-linecap="round" stroke-linejoin="round"/>
</svg>
