<svg width="29" height="28" viewBox="0 0 29 28" fill="none" xmlns="http://www.w3.org/2000/svg">
<path d="M7.5357 12.1429C10.3563 12.1429 12.6428 9.85632 12.6428 7.03573C12.6428 4.21514 10.3563 1.92859 7.5357 1.92859C4.71511 1.92859 2.42856 4.21514 2.42856 7.03573C2.42856 9.85632 4.71511 12.1429 7.5357 12.1429Z" stroke="white" stroke-width="2" stroke-linecap="round" stroke-linejoin="round"/>
<path d="M21.4643 12.1429C24.2849 12.1429 26.5714 9.85632 26.5714 7.03573C26.5714 4.21514 24.2849 1.92859 21.4643 1.92859C18.6437 1.92859 16.3571 4.21514 16.3571 7.03573C16.3571 9.85632 18.6437 12.1429 21.4643 12.1429Z" stroke="white" stroke-width="2" stroke-linecap="round" stroke-linejoin="round"/>
<path d="M7.5357 26.0715C10.3563 26.0715 12.6428 23.7849 12.6428 20.9643C12.6428 18.1437 10.3563 15.8572 7.5357 15.8572C4.71511 15.8572 2.42856 18.1437 2.42856 20.9643C2.42856 23.7849 4.71511 26.0715 7.5357 26.0715Z" stroke="white" stroke-width="2" stroke-linecap="round" stroke-linejoin="round"/>
<path d="M21.4643 26.0715C24.2849 26.0715 26.5714 23.7849 26.5714 20.9643C26.5714 18.1437 24.2849 15.8572 21.4643 15.8572C18.6437 15.8572 16.3571 18.1437 16.3571 20.9643C16.3571 23.7849 18.6437 26.0715 21.4643 26.0715Z" stroke="white" stroke-width="2" stroke-linecap="round" stroke-linejoin="round"/>
</svg>
