<svg width="20" height="20" viewBox="0 0 20 20" fill="none" xmlns="http://www.w3.org/2000/svg">
<path d="M7.42864 9.35713C9.20384 9.35713 10.6429 7.91804 10.6429 6.14284C10.6429 4.36765 9.20384 2.92856 7.42864 2.92856C5.65344 2.92856 4.21436 4.36765 4.21436 6.14284C4.21436 7.91804 5.65344 9.35713 7.42864 9.35713Z" stroke="black" stroke-width="2" stroke-linecap="round" stroke-linejoin="round"/>
<path d="M1.64282 18.3571H13.2143V17.6601C13.204 16.6802 12.9456 15.7187 12.463 14.8658C11.9805 14.0127 11.2897 13.2959 10.455 12.7823C9.62036 12.2686 8.66914 11.9749 7.69021 11.9286C7.60293 11.9245 7.51568 11.9223 7.42854 11.9221C7.34139 11.9223 7.25414 11.9245 7.16687 11.9286C6.18794 11.9749 5.23672 12.2686 4.40206 12.7823C3.56741 13.2959 2.87656 14.0127 2.39403 14.8658C1.91151 15.7187 1.65306 16.6802 1.64282 17.6601V18.3571Z" stroke="black" stroke-width="2" stroke-linecap="round" stroke-linejoin="round"/>
<path d="M12.5713 9.35713C14.3465 9.35713 15.7856 7.91804 15.7856 6.14284C15.7856 4.36765 14.3465 2.92856 12.5713 2.92856" stroke="black" stroke-width="2" stroke-linecap="round" stroke-linejoin="round"/>
<path d="M15.7857 18.3573H18.3572V17.6601C18.3469 16.6802 18.0885 15.7187 17.6059 14.8658C17.1234 14.0127 16.4326 13.2959 15.5979 12.7823C15.0584 12.4503 14.4701 12.2101 13.8572 12.0693" stroke="black" stroke-width="2" stroke-linecap="round" stroke-linejoin="round"/>
</svg>
