<svg width="27" height="26" viewBox="0 0 27 26" fill="none" xmlns="http://www.w3.org/2000/svg">
<path d="M2.29082 22.0534V3.9463C2.29082 3.48893 2.4725 3.0503 2.79591 2.72689C3.11931 2.40349 3.55794 2.2218 4.01531 2.2218H10.3787C10.7726 2.21032 11.1586 2.33412 11.4724 2.57259C11.7861 2.81105 12.0087 3.14979 12.1032 3.53242L12.6378 5.67079H22.9847C23.442 5.67079 23.8807 5.85246 24.2041 6.17587C24.5274 6.49928 24.7092 6.93791 24.7092 7.39528V22.0534C24.7092 22.5109 24.5274 22.9494 24.2041 23.2728C23.8807 23.5963 23.442 23.7779 22.9847 23.7779H4.01531C3.55794 23.7779 3.11931 23.5963 2.79591 23.2728C2.4725 22.9494 2.29082 22.5109 2.29082 22.0534Z" stroke="white" stroke-width="2" stroke-linecap="round" stroke-linejoin="round"/>
<path d="M9.18878 16.449L11.7755 18.1735L16.949 11.2755" stroke="white" stroke-width="2" stroke-linecap="round" stroke-linejoin="round"/>
</svg>
